<mxfile host="app.diagrams.net" modified="2022-09-06T08:00:06.282Z" agent="5.0 (Macintosh; Intel Mac OS X 10_15_7) AppleWebKit/537.36 (KHTML, like Gecko) Chrome/105.0.0.0 Safari/537.36" etag="sNqJB8Dw-eVC-DvhVdHp" version="20.2.7" type="github" pages="3">
  <diagram id="Uj9h9DkBMi4RGe9ZGqF9" name="entity linking logic">
    <mxGraphModel dx="2600" dy="1161" grid="1" gridSize="10" guides="1" tooltips="1" connect="1" arrows="1" fold="1" page="1" pageScale="1" pageWidth="850" pageHeight="1100" math="0" shadow="0">
      <root>
        <mxCell id="0" />
        <mxCell id="1" parent="0" />
        <mxCell id="ToCziA8nSgazayNwWKZx-36" value="" style="rounded=1;whiteSpace=wrap;html=1;" parent="1" vertex="1">
          <mxGeometry x="-760" y="140" width="350" height="540" as="geometry" />
        </mxCell>
        <mxCell id="ToCziA8nSgazayNwWKZx-34" value="" style="rounded=1;whiteSpace=wrap;html=1;" parent="1" vertex="1">
          <mxGeometry x="-180" y="140" width="490" height="540" as="geometry" />
        </mxCell>
        <mxCell id="ToCziA8nSgazayNwWKZx-1" value="Admission" style="ellipse;whiteSpace=wrap;html=1;aspect=fixed;" parent="1" vertex="1">
          <mxGeometry x="-740" y="260" width="80" height="80" as="geometry" />
        </mxCell>
        <mxCell id="ToCziA8nSgazayNwWKZx-2" value="Diagnosis" style="ellipse;whiteSpace=wrap;html=1;aspect=fixed;fillColor=#f8cecc;strokeColor=#b85450;" parent="1" vertex="1">
          <mxGeometry x="-590" y="160" width="80" height="80" as="geometry" />
        </mxCell>
        <mxCell id="ToCziA8nSgazayNwWKZx-3" value="Item1" style="ellipse;whiteSpace=wrap;html=1;aspect=fixed;fillColor=#f8cecc;strokeColor=#b85450;" parent="1" vertex="1">
          <mxGeometry x="-590" y="270" width="80" height="80" as="geometry" />
        </mxCell>
        <mxCell id="ToCziA8nSgazayNwWKZx-4" value="Item2" style="ellipse;whiteSpace=wrap;html=1;aspect=fixed;fillColor=#f8cecc;strokeColor=#b85450;" parent="1" vertex="1">
          <mxGeometry x="-590" y="370" width="80" height="80" as="geometry" />
        </mxCell>
        <mxCell id="ToCziA8nSgazayNwWKZx-5" value="Item3" style="ellipse;whiteSpace=wrap;html=1;aspect=fixed;" parent="1" vertex="1">
          <mxGeometry x="-590" y="470" width="80" height="80" as="geometry" />
        </mxCell>
        <mxCell id="ToCziA8nSgazayNwWKZx-6" value="Item4" style="ellipse;whiteSpace=wrap;html=1;aspect=fixed;fillColor=#f8cecc;strokeColor=#b85450;" parent="1" vertex="1">
          <mxGeometry x="-590" y="570" width="80" height="80" as="geometry" />
        </mxCell>
        <mxCell id="ToCziA8nSgazayNwWKZx-7" value="" style="endArrow=classic;html=1;rounded=0;exitX=1;exitY=0.5;exitDx=0;exitDy=0;" parent="1" source="ToCziA8nSgazayNwWKZx-2" target="ToCziA8nSgazayNwWKZx-8" edge="1">
          <mxGeometry width="50" height="50" relative="1" as="geometry">
            <mxPoint x="-320" y="350" as="sourcePoint" />
            <mxPoint x="-370" y="260" as="targetPoint" />
          </mxGeometry>
        </mxCell>
        <mxCell id="ToCziA8nSgazayNwWKZx-8" value="Index1" style="ellipse;whiteSpace=wrap;html=1;aspect=fixed;" parent="1" vertex="1">
          <mxGeometry x="-160" y="220" width="80" height="80" as="geometry" />
        </mxCell>
        <mxCell id="ToCziA8nSgazayNwWKZx-9" value="Index2" style="ellipse;whiteSpace=wrap;html=1;aspect=fixed;" parent="1" vertex="1">
          <mxGeometry x="-160" y="320" width="80" height="80" as="geometry" />
        </mxCell>
        <mxCell id="ToCziA8nSgazayNwWKZx-10" value="" style="endArrow=classic;html=1;rounded=0;exitX=1;exitY=0.5;exitDx=0;exitDy=0;entryX=0;entryY=0.5;entryDx=0;entryDy=0;" parent="1" source="ToCziA8nSgazayNwWKZx-3" target="ToCziA8nSgazayNwWKZx-9" edge="1">
          <mxGeometry width="50" height="50" relative="1" as="geometry">
            <mxPoint x="-320" y="350" as="sourcePoint" />
            <mxPoint x="-270" y="300" as="targetPoint" />
          </mxGeometry>
        </mxCell>
        <mxCell id="ToCziA8nSgazayNwWKZx-11" value="" style="endArrow=classic;html=1;rounded=0;exitX=1;exitY=0.5;exitDx=0;exitDy=0;entryX=0;entryY=0.5;entryDx=0;entryDy=0;" parent="1" source="ToCziA8nSgazayNwWKZx-4" target="ToCziA8nSgazayNwWKZx-9" edge="1">
          <mxGeometry width="50" height="50" relative="1" as="geometry">
            <mxPoint x="-320" y="350" as="sourcePoint" />
            <mxPoint x="-270" y="300" as="targetPoint" />
          </mxGeometry>
        </mxCell>
        <mxCell id="ToCziA8nSgazayNwWKZx-12" value="Index3" style="ellipse;whiteSpace=wrap;html=1;aspect=fixed;" parent="1" vertex="1">
          <mxGeometry x="-160" y="450" width="80" height="80" as="geometry" />
        </mxCell>
        <mxCell id="ToCziA8nSgazayNwWKZx-13" value="" style="endArrow=classic;html=1;rounded=0;exitX=1;exitY=0.5;exitDx=0;exitDy=0;entryX=0;entryY=0.5;entryDx=0;entryDy=0;" parent="1" source="ToCziA8nSgazayNwWKZx-5" target="ToCziA8nSgazayNwWKZx-12" edge="1">
          <mxGeometry width="50" height="50" relative="1" as="geometry">
            <mxPoint x="-500" y="420" as="sourcePoint" />
            <mxPoint x="-360" y="370" as="targetPoint" />
          </mxGeometry>
        </mxCell>
        <mxCell id="ToCziA8nSgazayNwWKZx-14" value="Index4" style="ellipse;whiteSpace=wrap;html=1;aspect=fixed;" parent="1" vertex="1">
          <mxGeometry x="-160" y="570" width="80" height="80" as="geometry" />
        </mxCell>
        <mxCell id="ToCziA8nSgazayNwWKZx-15" value="" style="endArrow=classic;html=1;rounded=0;exitX=1;exitY=0.5;exitDx=0;exitDy=0;entryX=0;entryY=0.5;entryDx=0;entryDy=0;" parent="1" source="ToCziA8nSgazayNwWKZx-6" target="ToCziA8nSgazayNwWKZx-14" edge="1">
          <mxGeometry width="50" height="50" relative="1" as="geometry">
            <mxPoint x="-500" y="520" as="sourcePoint" />
            <mxPoint x="-360" y="500" as="targetPoint" />
          </mxGeometry>
        </mxCell>
        <mxCell id="ToCziA8nSgazayNwWKZx-16" value="Concept1" style="ellipse;whiteSpace=wrap;html=1;aspect=fixed;" parent="1" vertex="1">
          <mxGeometry x="20" y="170" width="80" height="80" as="geometry" />
        </mxCell>
        <mxCell id="ToCziA8nSgazayNwWKZx-17" value="Concept2" style="ellipse;whiteSpace=wrap;html=1;aspect=fixed;" parent="1" vertex="1">
          <mxGeometry x="20" y="320" width="80" height="80" as="geometry" />
        </mxCell>
        <mxCell id="ToCziA8nSgazayNwWKZx-18" value="Concept3" style="ellipse;whiteSpace=wrap;html=1;aspect=fixed;" parent="1" vertex="1">
          <mxGeometry x="20" y="440" width="80" height="80" as="geometry" />
        </mxCell>
        <mxCell id="ToCziA8nSgazayNwWKZx-19" value="Concept4" style="ellipse;whiteSpace=wrap;html=1;aspect=fixed;" parent="1" vertex="1">
          <mxGeometry x="20" y="570" width="80" height="80" as="geometry" />
        </mxCell>
        <mxCell id="ToCziA8nSgazayNwWKZx-20" value="" style="endArrow=classic;html=1;rounded=0;exitX=1;exitY=0.5;exitDx=0;exitDy=0;entryX=0;entryY=0.5;entryDx=0;entryDy=0;" parent="1" source="ToCziA8nSgazayNwWKZx-9" target="ToCziA8nSgazayNwWKZx-17" edge="1">
          <mxGeometry width="50" height="50" relative="1" as="geometry">
            <mxPoint x="-290" y="320" as="sourcePoint" />
            <mxPoint x="-150" y="370" as="targetPoint" />
          </mxGeometry>
        </mxCell>
        <mxCell id="ToCziA8nSgazayNwWKZx-21" value="" style="endArrow=classic;html=1;rounded=0;exitX=1;exitY=0.5;exitDx=0;exitDy=0;entryX=-0.012;entryY=0.613;entryDx=0;entryDy=0;entryPerimeter=0;" parent="1" source="ToCziA8nSgazayNwWKZx-8" target="ToCziA8nSgazayNwWKZx-16" edge="1">
          <mxGeometry width="50" height="50" relative="1" as="geometry">
            <mxPoint x="-70" y="370" as="sourcePoint" />
            <mxPoint x="30" y="370" as="targetPoint" />
          </mxGeometry>
        </mxCell>
        <mxCell id="ToCziA8nSgazayNwWKZx-22" value="" style="endArrow=classic;html=1;rounded=0;exitX=1;exitY=0;exitDx=0;exitDy=0;" parent="1" source="ToCziA8nSgazayNwWKZx-1" target="ToCziA8nSgazayNwWKZx-2" edge="1">
          <mxGeometry width="50" height="50" relative="1" as="geometry">
            <mxPoint x="-500" y="210" as="sourcePoint" />
            <mxPoint x="-357.9473319220215" y="257.3508893593262" as="targetPoint" />
          </mxGeometry>
        </mxCell>
        <mxCell id="ToCziA8nSgazayNwWKZx-23" value="" style="endArrow=classic;html=1;rounded=0;exitX=1;exitY=0.5;exitDx=0;exitDy=0;entryX=0;entryY=0.5;entryDx=0;entryDy=0;" parent="1" source="ToCziA8nSgazayNwWKZx-1" target="ToCziA8nSgazayNwWKZx-3" edge="1">
          <mxGeometry width="50" height="50" relative="1" as="geometry">
            <mxPoint x="-490" y="220" as="sourcePoint" />
            <mxPoint x="-347.9473319220215" y="267.3508893593262" as="targetPoint" />
          </mxGeometry>
        </mxCell>
        <mxCell id="ToCziA8nSgazayNwWKZx-24" value="" style="endArrow=classic;html=1;rounded=0;exitX=1;exitY=1;exitDx=0;exitDy=0;entryX=0;entryY=0.5;entryDx=0;entryDy=0;" parent="1" source="ToCziA8nSgazayNwWKZx-1" target="ToCziA8nSgazayNwWKZx-4" edge="1">
          <mxGeometry width="50" height="50" relative="1" as="geometry">
            <mxPoint x="-480" y="230" as="sourcePoint" />
            <mxPoint x="-337.9473319220215" y="277.3508893593262" as="targetPoint" />
          </mxGeometry>
        </mxCell>
        <mxCell id="ToCziA8nSgazayNwWKZx-25" value="" style="endArrow=classic;html=1;rounded=0;exitX=1;exitY=1;exitDx=0;exitDy=0;entryX=0;entryY=0.5;entryDx=0;entryDy=0;" parent="1" source="ToCziA8nSgazayNwWKZx-1" target="ToCziA8nSgazayNwWKZx-5" edge="1">
          <mxGeometry width="50" height="50" relative="1" as="geometry">
            <mxPoint x="-470" y="240" as="sourcePoint" />
            <mxPoint x="-327.9473319220215" y="287.3508893593262" as="targetPoint" />
          </mxGeometry>
        </mxCell>
        <mxCell id="ToCziA8nSgazayNwWKZx-26" value="" style="endArrow=classic;html=1;rounded=0;exitX=0.5;exitY=1;exitDx=0;exitDy=0;entryX=0;entryY=0.5;entryDx=0;entryDy=0;" parent="1" source="ToCziA8nSgazayNwWKZx-1" target="ToCziA8nSgazayNwWKZx-6" edge="1">
          <mxGeometry width="50" height="50" relative="1" as="geometry">
            <mxPoint x="-460" y="250" as="sourcePoint" />
            <mxPoint x="-317.9473319220215" y="297.3508893593262" as="targetPoint" />
          </mxGeometry>
        </mxCell>
        <mxCell id="ToCziA8nSgazayNwWKZx-27" value="Rule1" style="ellipse;whiteSpace=wrap;html=1;aspect=fixed;" parent="1" vertex="1">
          <mxGeometry x="190" y="170" width="80" height="80" as="geometry" />
        </mxCell>
        <mxCell id="ToCziA8nSgazayNwWKZx-28" value="Rule2" style="ellipse;whiteSpace=wrap;html=1;aspect=fixed;" parent="1" vertex="1">
          <mxGeometry x="200" y="570" width="80" height="80" as="geometry" />
        </mxCell>
        <mxCell id="ToCziA8nSgazayNwWKZx-29" value="" style="endArrow=classic;html=1;rounded=0;exitX=1;exitY=0.5;exitDx=0;exitDy=0;" parent="1" source="ToCziA8nSgazayNwWKZx-12" target="ToCziA8nSgazayNwWKZx-18" edge="1">
          <mxGeometry width="50" height="50" relative="1" as="geometry">
            <mxPoint x="-70" y="370" as="sourcePoint" />
            <mxPoint x="30" y="370" as="targetPoint" />
          </mxGeometry>
        </mxCell>
        <mxCell id="ToCziA8nSgazayNwWKZx-30" value="" style="endArrow=classic;html=1;rounded=0;exitX=1;exitY=0.5;exitDx=0;exitDy=0;entryX=0;entryY=0.5;entryDx=0;entryDy=0;" parent="1" source="ToCziA8nSgazayNwWKZx-14" target="ToCziA8nSgazayNwWKZx-19" edge="1">
          <mxGeometry width="50" height="50" relative="1" as="geometry">
            <mxPoint x="-70" y="500" as="sourcePoint" />
            <mxPoint x="30.10165200677102" y="492.8498819995161" as="targetPoint" />
          </mxGeometry>
        </mxCell>
        <mxCell id="ToCziA8nSgazayNwWKZx-31" value="" style="endArrow=classic;html=1;rounded=0;exitX=1;exitY=0.5;exitDx=0;exitDy=0;entryX=0;entryY=0.5;entryDx=0;entryDy=0;" parent="1" source="ToCziA8nSgazayNwWKZx-16" target="ToCziA8nSgazayNwWKZx-27" edge="1">
          <mxGeometry width="50" height="50" relative="1" as="geometry">
            <mxPoint x="-60" y="510" as="sourcePoint" />
            <mxPoint x="40.10165200677102" y="502.8498819995161" as="targetPoint" />
          </mxGeometry>
        </mxCell>
        <mxCell id="ToCziA8nSgazayNwWKZx-32" value="" style="endArrow=classic;html=1;rounded=0;entryX=0;entryY=1;entryDx=0;entryDy=0;" parent="1" target="ToCziA8nSgazayNwWKZx-27" edge="1">
          <mxGeometry width="50" height="50" relative="1" as="geometry">
            <mxPoint x="100" y="360" as="sourcePoint" />
            <mxPoint x="50.10165200677102" y="512.8498819995161" as="targetPoint" />
          </mxGeometry>
        </mxCell>
        <mxCell id="ToCziA8nSgazayNwWKZx-33" value="" style="endArrow=classic;html=1;rounded=0;exitX=1;exitY=0.5;exitDx=0;exitDy=0;entryX=0;entryY=0.5;entryDx=0;entryDy=0;" parent="1" source="ToCziA8nSgazayNwWKZx-19" target="ToCziA8nSgazayNwWKZx-28" edge="1">
          <mxGeometry width="50" height="50" relative="1" as="geometry">
            <mxPoint x="-40" y="530" as="sourcePoint" />
            <mxPoint x="60.10165200677102" y="522.8498819995161" as="targetPoint" />
          </mxGeometry>
        </mxCell>
        <mxCell id="ToCziA8nSgazayNwWKZx-35" value="Knowledge Graph" style="text;html=1;strokeColor=none;fillColor=none;align=center;verticalAlign=middle;whiteSpace=wrap;rounded=0;" parent="1" vertex="1">
          <mxGeometry x="5" y="140" width="140" height="30" as="geometry" />
        </mxCell>
        <mxCell id="ToCziA8nSgazayNwWKZx-37" value="Data Point" style="text;html=1;strokeColor=none;fillColor=none;align=center;verticalAlign=middle;whiteSpace=wrap;rounded=0;" parent="1" vertex="1">
          <mxGeometry x="-660" y="140" width="140" height="30" as="geometry" />
        </mxCell>
        <mxCell id="ToCziA8nSgazayNwWKZx-38" value="Entity Linking Service" style="ellipse;whiteSpace=wrap;html=1;" parent="1" vertex="1">
          <mxGeometry x="-350" y="30" width="120" height="80" as="geometry" />
        </mxCell>
        <mxCell id="ToCziA8nSgazayNwWKZx-40" value="" style="shape=flexArrow;endArrow=classic;html=1;rounded=0;entryX=1;entryY=0;entryDx=0;entryDy=0;exitX=0;exitY=1;exitDx=0;exitDy=0;" parent="1" source="ToCziA8nSgazayNwWKZx-38" target="ToCziA8nSgazayNwWKZx-36" edge="1">
          <mxGeometry width="50" height="50" relative="1" as="geometry">
            <mxPoint x="-230" y="320" as="sourcePoint" />
            <mxPoint x="-180" y="270" as="targetPoint" />
          </mxGeometry>
        </mxCell>
        <mxCell id="ToCziA8nSgazayNwWKZx-41" value="" style="shape=flexArrow;endArrow=classic;html=1;rounded=0;entryX=0;entryY=0;entryDx=0;entryDy=0;exitX=1;exitY=1;exitDx=0;exitDy=0;" parent="1" source="ToCziA8nSgazayNwWKZx-38" target="ToCziA8nSgazayNwWKZx-34" edge="1">
          <mxGeometry width="50" height="50" relative="1" as="geometry">
            <mxPoint x="-322.42640687119274" y="108.28427124746167" as="sourcePoint" />
            <mxPoint x="-400" y="150" as="targetPoint" />
          </mxGeometry>
        </mxCell>
      </root>
    </mxGraphModel>
  </diagram>
  <diagram id="UQtKh2AKOb9bwCj444vK" name="topology">
    <mxGraphModel dx="1510" dy="1161" grid="1" gridSize="10" guides="1" tooltips="1" connect="1" arrows="1" fold="1" page="1" pageScale="1" pageWidth="850" pageHeight="1100" math="0" shadow="0">
      <root>
        <mxCell id="0" />
        <mxCell id="1" parent="0" />
        <mxCell id="z3SCZQm9MV1HzYlg22tj-1" value="Concept&lt;br&gt;概念" style="ellipse;whiteSpace=wrap;html=1;aspect=fixed;" parent="1" vertex="1">
          <mxGeometry x="250" y="580" width="80" height="80" as="geometry" />
        </mxCell>
        <mxCell id="z3SCZQm9MV1HzYlg22tj-2" value="Rule&lt;br&gt;规则" style="ellipse;whiteSpace=wrap;html=1;aspect=fixed;" parent="1" vertex="1">
          <mxGeometry x="250" y="250" width="80" height="80" as="geometry" />
        </mxCell>
        <mxCell id="z3SCZQm9MV1HzYlg22tj-3" value="RuleCollection&lt;br&gt;规则集合" style="ellipse;whiteSpace=wrap;html=1;aspect=fixed;" parent="1" vertex="1">
          <mxGeometry x="250" y="90" width="80" height="80" as="geometry" />
        </mxCell>
        <mxCell id="z3SCZQm9MV1HzYlg22tj-4" value="RuleMeta&lt;br&gt;规则类型" style="ellipse;whiteSpace=wrap;html=1;aspect=fixed;" parent="1" vertex="1">
          <mxGeometry x="440" y="90" width="80" height="80" as="geometry" />
        </mxCell>
        <mxCell id="z3SCZQm9MV1HzYlg22tj-5" value="" style="endArrow=classic;html=1;rounded=0;exitX=0.5;exitY=1;exitDx=0;exitDy=0;entryX=0.5;entryY=0;entryDx=0;entryDy=0;" parent="1" source="z3SCZQm9MV1HzYlg22tj-3" target="z3SCZQm9MV1HzYlg22tj-2" edge="1">
          <mxGeometry width="50" height="50" relative="1" as="geometry">
            <mxPoint x="400" y="440" as="sourcePoint" />
            <mxPoint x="450" y="390" as="targetPoint" />
          </mxGeometry>
        </mxCell>
        <mxCell id="z3SCZQm9MV1HzYlg22tj-6" value="HAS_RULE" style="edgeLabel;html=1;align=center;verticalAlign=middle;resizable=0;points=[];" parent="z3SCZQm9MV1HzYlg22tj-5" vertex="1" connectable="0">
          <mxGeometry x="-0.175" relative="1" as="geometry">
            <mxPoint as="offset" />
          </mxGeometry>
        </mxCell>
        <mxCell id="z3SCZQm9MV1HzYlg22tj-7" value="" style="endArrow=classic;html=1;rounded=0;exitX=1;exitY=0.5;exitDx=0;exitDy=0;entryX=0;entryY=0.5;entryDx=0;entryDy=0;" parent="1" source="z3SCZQm9MV1HzYlg22tj-2" target="fN2IPZuYBG6KQM6beQOC-10" edge="1">
          <mxGeometry width="50" height="50" relative="1" as="geometry">
            <mxPoint x="300" y="180" as="sourcePoint" />
            <mxPoint x="300" y="260" as="targetPoint" />
          </mxGeometry>
        </mxCell>
        <mxCell id="z3SCZQm9MV1HzYlg22tj-8" value="HAS_ENTITY" style="edgeLabel;html=1;align=center;verticalAlign=middle;resizable=0;points=[];" parent="z3SCZQm9MV1HzYlg22tj-7" vertex="1" connectable="0">
          <mxGeometry x="-0.1429" relative="1" as="geometry">
            <mxPoint as="offset" />
          </mxGeometry>
        </mxCell>
        <mxCell id="z3SCZQm9MV1HzYlg22tj-10" value="" style="edgeStyle=segmentEdgeStyle;endArrow=classic;html=1;rounded=0;exitX=1;exitY=0.5;exitDx=0;exitDy=0;entryX=0;entryY=0.5;entryDx=0;entryDy=0;" parent="1" source="z3SCZQm9MV1HzYlg22tj-1" target="z3SCZQm9MV1HzYlg22tj-9" edge="1">
          <mxGeometry width="50" height="50" relative="1" as="geometry">
            <mxPoint x="400" y="440" as="sourcePoint" />
            <mxPoint x="450" y="390" as="targetPoint" />
            <Array as="points">
              <mxPoint x="480" y="620" />
              <mxPoint x="480" y="530" />
            </Array>
          </mxGeometry>
        </mxCell>
        <mxCell id="fN2IPZuYBG6KQM6beQOC-19" value="HAS_INDEXED_NAME" style="edgeLabel;html=1;align=center;verticalAlign=middle;resizable=0;points=[];fontSize=10;fontFamily=Georgia;fontColor=#2B32FF;" parent="z3SCZQm9MV1HzYlg22tj-10" vertex="1" connectable="0">
          <mxGeometry x="0.1077" relative="1" as="geometry">
            <mxPoint as="offset" />
          </mxGeometry>
        </mxCell>
        <mxCell id="z3SCZQm9MV1HzYlg22tj-11" value="" style="endArrow=classic;html=1;rounded=0;entryX=0;entryY=0.5;entryDx=0;entryDy=0;exitX=1;exitY=0.5;exitDx=0;exitDy=0;" parent="1" source="z3SCZQm9MV1HzYlg22tj-3" target="z3SCZQm9MV1HzYlg22tj-4" edge="1">
          <mxGeometry width="50" height="50" relative="1" as="geometry">
            <mxPoint x="400" y="440" as="sourcePoint" />
            <mxPoint x="450" y="390" as="targetPoint" />
          </mxGeometry>
        </mxCell>
        <mxCell id="z3SCZQm9MV1HzYlg22tj-12" value="HAS_META" style="edgeLabel;html=1;align=center;verticalAlign=middle;resizable=0;points=[];" parent="z3SCZQm9MV1HzYlg22tj-11" vertex="1" connectable="0">
          <mxGeometry x="-0.0545" relative="1" as="geometry">
            <mxPoint as="offset" />
          </mxGeometry>
        </mxCell>
        <mxCell id="z3SCZQm9MV1HzYlg22tj-13" value="rule creation" style="shape=hexagon;perimeter=hexagonPerimeter2;whiteSpace=wrap;html=1;fixedSize=1;fontSize=14;fontColor=#2B32FF;strokeColor=#2B32FF;" parent="1" vertex="1">
          <mxGeometry x="70" y="90" width="120" height="80" as="geometry" />
        </mxCell>
        <mxCell id="z3SCZQm9MV1HzYlg22tj-14" value="create" style="endArrow=classic;html=1;rounded=0;fontSize=14;fontColor=#2B32FF;exitX=0.5;exitY=1;exitDx=0;exitDy=0;entryX=0;entryY=0.5;entryDx=0;entryDy=0;" parent="1" source="z3SCZQm9MV1HzYlg22tj-13" target="z3SCZQm9MV1HzYlg22tj-2" edge="1">
          <mxGeometry width="50" height="50" relative="1" as="geometry">
            <mxPoint x="400" y="420" as="sourcePoint" />
            <mxPoint x="450" y="370" as="targetPoint" />
            <Array as="points">
              <mxPoint x="130" y="290" />
            </Array>
          </mxGeometry>
        </mxCell>
        <mxCell id="z3SCZQm9MV1HzYlg22tj-15" value="IndexedDataSource" style="ellipse;whiteSpace=wrap;html=1;aspect=fixed;" parent="1" vertex="1">
          <mxGeometry x="1034" y="390" width="80" height="80" as="geometry" />
        </mxCell>
        <mxCell id="z3SCZQm9MV1HzYlg22tj-16" value="" style="edgeStyle=segmentEdgeStyle;endArrow=classic;html=1;rounded=0;exitX=1;exitY=0.5;exitDx=0;exitDy=0;entryX=0.5;entryY=1;entryDx=0;entryDy=0;strokeColor=#FF0D0D;" parent="1" source="z3SCZQm9MV1HzYlg22tj-9" target="z3SCZQm9MV1HzYlg22tj-15" edge="1">
          <mxGeometry width="50" height="50" relative="1" as="geometry">
            <mxPoint x="490" y="430" as="sourcePoint" />
            <mxPoint x="610" y="590" as="targetPoint" />
          </mxGeometry>
        </mxCell>
        <mxCell id="z3SCZQm9MV1HzYlg22tj-17" value="HAS_DATASOURCE" style="edgeLabel;html=1;align=center;verticalAlign=middle;resizable=0;points=[];" parent="z3SCZQm9MV1HzYlg22tj-16" vertex="1" connectable="0">
          <mxGeometry x="-0.2" relative="1" as="geometry">
            <mxPoint as="offset" />
          </mxGeometry>
        </mxCell>
        <mxCell id="z3SCZQm9MV1HzYlg22tj-20" value="Tag&lt;br&gt;标签" style="ellipse;whiteSpace=wrap;html=1;aspect=fixed;strokeColor=#2B32FF;fontColor=#2B32FF;" parent="1" vertex="1">
          <mxGeometry x="90" y="580" width="80" height="80" as="geometry" />
        </mxCell>
        <mxCell id="z3SCZQm9MV1HzYlg22tj-21" value="" style="endArrow=classic;html=1;rounded=0;exitX=0;exitY=0.5;exitDx=0;exitDy=0;entryX=1;entryY=0.5;entryDx=0;entryDy=0;" parent="1" source="z3SCZQm9MV1HzYlg22tj-1" target="z3SCZQm9MV1HzYlg22tj-20" edge="1">
          <mxGeometry width="50" height="50" relative="1" as="geometry">
            <mxPoint x="230" y="630" as="sourcePoint" />
            <mxPoint x="280" y="580" as="targetPoint" />
          </mxGeometry>
        </mxCell>
        <mxCell id="z3SCZQm9MV1HzYlg22tj-22" value="&lt;font color=&quot;#2b32ff&quot;&gt;HAS_TAG&lt;/font&gt;" style="edgeLabel;html=1;align=center;verticalAlign=middle;resizable=0;points=[];" parent="z3SCZQm9MV1HzYlg22tj-21" vertex="1" connectable="0">
          <mxGeometry x="-0.075" y="-1" relative="1" as="geometry">
            <mxPoint as="offset" />
          </mxGeometry>
        </mxCell>
        <mxCell id="z3SCZQm9MV1HzYlg22tj-23" value="Detail&lt;br&gt;三目录" style="ellipse;whiteSpace=wrap;html=1;aspect=fixed;" parent="1" vertex="1">
          <mxGeometry x="1034" y="220" width="80" height="80" as="geometry" />
        </mxCell>
        <mxCell id="z3SCZQm9MV1HzYlg22tj-24" value="HAS_DETAIL" style="endArrow=classic;html=1;rounded=0;entryX=0.5;entryY=1;entryDx=0;entryDy=0;exitX=0.5;exitY=0;exitDx=0;exitDy=0;" parent="1" source="z3SCZQm9MV1HzYlg22tj-15" target="z3SCZQm9MV1HzYlg22tj-23" edge="1">
          <mxGeometry width="50" height="50" relative="1" as="geometry">
            <mxPoint x="604" y="450" as="sourcePoint" />
            <mxPoint x="654" y="400" as="targetPoint" />
          </mxGeometry>
        </mxCell>
        <mxCell id="z3SCZQm9MV1HzYlg22tj-25" value="" style="edgeStyle=segmentEdgeStyle;endArrow=classic;html=1;rounded=0;exitX=0;exitY=0.5;exitDx=0;exitDy=0;entryX=0;entryY=0.5;entryDx=0;entryDy=0;" parent="1" source="z3SCZQm9MV1HzYlg22tj-13" target="z3SCZQm9MV1HzYlg22tj-20" edge="1">
          <mxGeometry width="50" height="50" relative="1" as="geometry">
            <mxPoint x="230" y="460" as="sourcePoint" />
            <mxPoint x="280" y="410" as="targetPoint" />
            <Array as="points">
              <mxPoint x="30" y="130" />
              <mxPoint x="30" y="620" />
            </Array>
          </mxGeometry>
        </mxCell>
        <mxCell id="z3SCZQm9MV1HzYlg22tj-26" value="&lt;font color=&quot;#2b32ff&quot;&gt;use&lt;/font&gt;" style="edgeLabel;html=1;align=center;verticalAlign=middle;resizable=0;points=[];" parent="z3SCZQm9MV1HzYlg22tj-25" vertex="1" connectable="0">
          <mxGeometry x="-0.2588" relative="1" as="geometry">
            <mxPoint as="offset" />
          </mxGeometry>
        </mxCell>
        <mxCell id="z3SCZQm9MV1HzYlg22tj-27" value="Diagnosis" style="ellipse;whiteSpace=wrap;html=1;aspect=fixed;" parent="1" vertex="1">
          <mxGeometry x="80" y="700" width="80" height="80" as="geometry" />
        </mxCell>
        <mxCell id="z3SCZQm9MV1HzYlg22tj-28" value="Item" style="ellipse;whiteSpace=wrap;html=1;aspect=fixed;" parent="1" vertex="1">
          <mxGeometry x="200" y="700" width="80" height="80" as="geometry" />
        </mxCell>
        <mxCell id="z3SCZQm9MV1HzYlg22tj-29" value="" style="edgeStyle=elbowEdgeStyle;elbow=vertical;endArrow=classic;html=1;rounded=0;fontColor=#2B32FF;exitX=0.5;exitY=1;exitDx=0;exitDy=0;dashed=1;dashPattern=1 2;strokeColor=#FF00FF;" parent="1" source="z3SCZQm9MV1HzYlg22tj-1" target="z3SCZQm9MV1HzYlg22tj-27" edge="1">
          <mxGeometry width="50" height="50" relative="1" as="geometry">
            <mxPoint x="320" y="670" as="sourcePoint" />
            <mxPoint x="370" y="620" as="targetPoint" />
          </mxGeometry>
        </mxCell>
        <mxCell id="z3SCZQm9MV1HzYlg22tj-30" value="&lt;font color=&quot;#ff00ff&quot;&gt;IS&lt;/font&gt;" style="edgeLabel;html=1;align=center;verticalAlign=middle;resizable=0;points=[];fontColor=#2B32FF;" parent="z3SCZQm9MV1HzYlg22tj-29" vertex="1" connectable="0">
          <mxGeometry x="0.1333" y="-1" relative="1" as="geometry">
            <mxPoint x="99" y="-9" as="offset" />
          </mxGeometry>
        </mxCell>
        <mxCell id="z3SCZQm9MV1HzYlg22tj-31" value="" style="edgeStyle=elbowEdgeStyle;elbow=vertical;endArrow=classic;html=1;rounded=0;fontColor=#2B32FF;exitX=0.5;exitY=1;exitDx=0;exitDy=0;dashed=1;dashPattern=1 2;strokeColor=#FF00FF;entryX=0.5;entryY=0;entryDx=0;entryDy=0;" parent="1" source="z3SCZQm9MV1HzYlg22tj-1" target="z3SCZQm9MV1HzYlg22tj-28" edge="1">
          <mxGeometry width="50" height="50" relative="1" as="geometry">
            <mxPoint x="300" y="670" as="sourcePoint" />
            <mxPoint x="130" y="710" as="targetPoint" />
          </mxGeometry>
        </mxCell>
        <mxCell id="p0oecEPyzzgRt3Arxqmp-1" value="&lt;font color=&quot;#ff00ff&quot;&gt;多标签&lt;/font&gt;" style="edgeLabel;html=1;align=center;verticalAlign=middle;resizable=0;points=[];" parent="z3SCZQm9MV1HzYlg22tj-31" vertex="1" connectable="0">
          <mxGeometry x="-0.7556" y="2" relative="1" as="geometry">
            <mxPoint as="offset" />
          </mxGeometry>
        </mxCell>
        <mxCell id="fN2IPZuYBG6KQM6beQOC-4" value="" style="edgeStyle=elbowEdgeStyle;elbow=horizontal;endArrow=classic;html=1;rounded=0;fontColor=#FF00FF;strokeColor=#000000;entryX=1;entryY=1;entryDx=0;entryDy=0;exitX=0;exitY=0.5;exitDx=0;exitDy=0;" parent="1" source="fN2IPZuYBG6KQM6beQOC-3" target="z3SCZQm9MV1HzYlg22tj-1" edge="1">
          <mxGeometry width="50" height="50" relative="1" as="geometry">
            <mxPoint x="510" y="600" as="sourcePoint" />
            <mxPoint x="560" y="550" as="targetPoint" />
          </mxGeometry>
        </mxCell>
        <mxCell id="fN2IPZuYBG6KQM6beQOC-23" value="DERIVED_FROM" style="edgeLabel;html=1;align=center;verticalAlign=middle;resizable=0;points=[];fontSize=10;fontFamily=Georgia;fontColor=#2B32FF;" parent="fN2IPZuYBG6KQM6beQOC-4" vertex="1" connectable="0">
          <mxGeometry x="0.0452" y="-1" relative="1" as="geometry">
            <mxPoint as="offset" />
          </mxGeometry>
        </mxCell>
        <mxCell id="fN2IPZuYBG6KQM6beQOC-7" value="" style="group" parent="1" vertex="1" connectable="0">
          <mxGeometry x="640" y="830" width="290" height="80" as="geometry" />
        </mxCell>
        <mxCell id="fN2IPZuYBG6KQM6beQOC-2" value="&lt;span style=&quot;font-size: 10px;&quot;&gt;CodeCollection&lt;br&gt;码表集合(ICD10, etc)&lt;br&gt;&lt;/span&gt;" style="ellipse;whiteSpace=wrap;html=1;aspect=fixed;fontSize=8;" parent="fN2IPZuYBG6KQM6beQOC-7" vertex="1">
          <mxGeometry x="210" width="80" height="80" as="geometry" />
        </mxCell>
        <mxCell id="fN2IPZuYBG6KQM6beQOC-3" value="CodeEntity&lt;br&gt;码表实体" style="ellipse;whiteSpace=wrap;html=1;aspect=fixed;" parent="fN2IPZuYBG6KQM6beQOC-7" vertex="1">
          <mxGeometry width="80" height="80" as="geometry" />
        </mxCell>
        <mxCell id="fN2IPZuYBG6KQM6beQOC-5" value="" style="endArrow=classic;html=1;rounded=0;fontFamily=Georgia;fontSize=10;fontColor=#FF00FF;strokeColor=#000000;entryX=1;entryY=0.5;entryDx=0;entryDy=0;exitX=0;exitY=0.5;exitDx=0;exitDy=0;" parent="fN2IPZuYBG6KQM6beQOC-7" source="fN2IPZuYBG6KQM6beQOC-2" target="fN2IPZuYBG6KQM6beQOC-3" edge="1">
          <mxGeometry width="50" height="50" relative="1" as="geometry">
            <mxPoint x="80" y="-240" as="sourcePoint" />
            <mxPoint x="130" y="-290" as="targetPoint" />
          </mxGeometry>
        </mxCell>
        <mxCell id="fN2IPZuYBG6KQM6beQOC-6" value="&lt;font color=&quot;#2b32ff&quot;&gt;HAS_ENTITY&lt;/font&gt;" style="edgeLabel;html=1;align=center;verticalAlign=middle;resizable=0;points=[];fontSize=10;fontFamily=Georgia;fontColor=#FF00FF;" parent="fN2IPZuYBG6KQM6beQOC-5" vertex="1" connectable="0">
          <mxGeometry x="-0.0667" relative="1" as="geometry">
            <mxPoint as="offset" />
          </mxGeometry>
        </mxCell>
        <mxCell id="fN2IPZuYBG6KQM6beQOC-10" value="RuleEntity&lt;br&gt;规则关联的实体" style="ellipse;whiteSpace=wrap;html=1;aspect=fixed;" parent="1" vertex="1">
          <mxGeometry x="440" y="250" width="80" height="80" as="geometry" />
        </mxCell>
        <mxCell id="fN2IPZuYBG6KQM6beQOC-11" value="" style="edgeStyle=elbowEdgeStyle;elbow=vertical;endArrow=classic;html=1;rounded=0;fontFamily=Georgia;fontSize=10;fontColor=#2B32FF;strokeColor=#000000;exitX=0.5;exitY=1;exitDx=0;exitDy=0;entryX=1;entryY=0;entryDx=0;entryDy=0;" parent="1" source="fN2IPZuYBG6KQM6beQOC-10" target="z3SCZQm9MV1HzYlg22tj-1" edge="1">
          <mxGeometry width="50" height="50" relative="1" as="geometry">
            <mxPoint x="670" y="510" as="sourcePoint" />
            <mxPoint x="720" y="460" as="targetPoint" />
            <Array as="points">
              <mxPoint x="380" y="440" />
            </Array>
          </mxGeometry>
        </mxCell>
        <mxCell id="fN2IPZuYBG6KQM6beQOC-15" value="DERIVED_FROM" style="edgeLabel;html=1;align=center;verticalAlign=middle;resizable=0;points=[];fontSize=10;fontFamily=Georgia;fontColor=#2B32FF;" parent="fN2IPZuYBG6KQM6beQOC-11" vertex="1" connectable="0">
          <mxGeometry x="-0.1498" relative="1" as="geometry">
            <mxPoint as="offset" />
          </mxGeometry>
        </mxCell>
        <mxCell id="fN2IPZuYBG6KQM6beQOC-13" value="" style="edgeStyle=segmentEdgeStyle;endArrow=classic;html=1;rounded=0;fontFamily=Georgia;fontSize=10;fontColor=#2B32FF;strokeColor=#000000;exitX=1;exitY=0.5;exitDx=0;exitDy=0;entryX=0.5;entryY=0;entryDx=0;entryDy=0;" parent="1" source="fN2IPZuYBG6KQM6beQOC-10" target="z3SCZQm9MV1HzYlg22tj-9" edge="1">
          <mxGeometry width="50" height="50" relative="1" as="geometry">
            <mxPoint x="530" y="300" as="sourcePoint" />
            <mxPoint x="720" y="460" as="targetPoint" />
          </mxGeometry>
        </mxCell>
        <mxCell id="fN2IPZuYBG6KQM6beQOC-18" value="HAS_INDEXED_NAME" style="edgeLabel;html=1;align=center;verticalAlign=middle;resizable=0;points=[];fontSize=10;fontFamily=Georgia;fontColor=#2B32FF;" parent="fN2IPZuYBG6KQM6beQOC-13" vertex="1" connectable="0">
          <mxGeometry x="-0.0057" y="1" relative="1" as="geometry">
            <mxPoint as="offset" />
          </mxGeometry>
        </mxCell>
        <mxCell id="fN2IPZuYBG6KQM6beQOC-14" value="" style="edgeStyle=elbowEdgeStyle;elbow=horizontal;endArrow=classic;html=1;rounded=0;fontFamily=Georgia;fontSize=10;fontColor=#2B32FF;strokeColor=#000000;exitX=0;exitY=1;exitDx=0;exitDy=0;entryX=0.5;entryY=0;entryDx=0;entryDy=0;" parent="1" source="z3SCZQm9MV1HzYlg22tj-1" target="z3SCZQm9MV1HzYlg22tj-1" edge="1">
          <mxGeometry width="50" height="50" relative="1" as="geometry">
            <mxPoint x="620" y="500" as="sourcePoint" />
            <mxPoint x="670" y="450" as="targetPoint" />
            <Array as="points">
              <mxPoint x="210" y="530" />
              <mxPoint x="210" y="640" />
              <mxPoint x="210" y="580" />
            </Array>
          </mxGeometry>
        </mxCell>
        <mxCell id="fN2IPZuYBG6KQM6beQOC-16" value="MERGED_INTO" style="edgeLabel;html=1;align=center;verticalAlign=middle;resizable=0;points=[];fontSize=10;fontFamily=Georgia;fontColor=#2B32FF;" parent="fN2IPZuYBG6KQM6beQOC-14" vertex="1" connectable="0">
          <mxGeometry x="0.51" relative="1" as="geometry">
            <mxPoint as="offset" />
          </mxGeometry>
        </mxCell>
        <mxCell id="fN2IPZuYBG6KQM6beQOC-17" value="" style="group;strokeColor=default;rounded=1;shadow=0;glass=0;sketch=0;" parent="1" vertex="1" connectable="0">
          <mxGeometry x="630" y="490" width="80" height="260" as="geometry" />
        </mxCell>
        <mxCell id="z3SCZQm9MV1HzYlg22tj-9" value="IndexedName" style="ellipse;whiteSpace=wrap;html=1;aspect=fixed;strokeColor=#6c8ebf;fillColor=#dae8fc;" parent="fN2IPZuYBG6KQM6beQOC-17" vertex="1">
          <mxGeometry width="80" height="80" as="geometry" />
        </mxCell>
        <mxCell id="z3SCZQm9MV1HzYlg22tj-18" value="Synonyms&lt;br&gt;同义词集合" style="ellipse;whiteSpace=wrap;html=1;aspect=fixed;strokeColor=default;" parent="fN2IPZuYBG6KQM6beQOC-17" vertex="1">
          <mxGeometry y="180" width="80" height="80" as="geometry" />
        </mxCell>
        <mxCell id="z3SCZQm9MV1HzYlg22tj-19" value="" style="endArrow=none;html=1;rounded=0;entryX=0.5;entryY=0;entryDx=0;entryDy=0;exitX=0.5;exitY=1;exitDx=0;exitDy=0;strokeColor=default;endFill=0;startArrow=classic;startFill=1;" parent="fN2IPZuYBG6KQM6beQOC-17" source="z3SCZQm9MV1HzYlg22tj-9" target="z3SCZQm9MV1HzYlg22tj-18" edge="1">
          <mxGeometry width="50" height="50" relative="1" as="geometry">
            <mxPoint x="-140" y="40" as="sourcePoint" />
            <mxPoint x="-90" y="-10" as="targetPoint" />
          </mxGeometry>
        </mxCell>
        <mxCell id="fN2IPZuYBG6KQM6beQOC-20" value="CONTAINS" style="edgeLabel;html=1;align=center;verticalAlign=middle;resizable=0;points=[];fontSize=10;fontFamily=Georgia;fontColor=#2B32FF;" parent="z3SCZQm9MV1HzYlg22tj-19" vertex="1" connectable="0">
          <mxGeometry x="-0.02" y="1" relative="1" as="geometry">
            <mxPoint as="offset" />
          </mxGeometry>
        </mxCell>
        <mxCell id="fN2IPZuYBG6KQM6beQOC-21" value="" style="edgeStyle=segmentEdgeStyle;endArrow=none;html=1;rounded=0;fontFamily=Georgia;fontSize=10;fontColor=#2B32FF;strokeColor=#000000;exitX=0;exitY=0;exitDx=0;exitDy=0;entryX=1;entryY=1;entryDx=0;entryDy=0;startArrow=classic;startFill=1;endFill=0;" parent="1" source="fN2IPZuYBG6KQM6beQOC-3" target="fN2IPZuYBG6KQM6beQOC-10" edge="1">
          <mxGeometry width="50" height="50" relative="1" as="geometry">
            <mxPoint x="630" y="460" as="sourcePoint" />
            <mxPoint x="680" y="410" as="targetPoint" />
            <Array as="points">
              <mxPoint x="508" y="842" />
            </Array>
          </mxGeometry>
        </mxCell>
        <mxCell id="fN2IPZuYBG6KQM6beQOC-22" value="DERIVED_FROM" style="edgeLabel;html=1;align=center;verticalAlign=middle;resizable=0;points=[];fontSize=10;fontFamily=Georgia;fontColor=#2B32FF;" parent="fN2IPZuYBG6KQM6beQOC-21" vertex="1" connectable="0">
          <mxGeometry x="0.0782" y="-1" relative="1" as="geometry">
            <mxPoint as="offset" />
          </mxGeometry>
        </mxCell>
        <mxCell id="fN2IPZuYBG6KQM6beQOC-24" value="Diagnosis" style="ellipse;whiteSpace=wrap;html=1;aspect=fixed;" parent="1" vertex="1">
          <mxGeometry x="540" y="170" width="80" height="80" as="geometry" />
        </mxCell>
        <mxCell id="fN2IPZuYBG6KQM6beQOC-25" value="Item" style="ellipse;whiteSpace=wrap;html=1;aspect=fixed;" parent="1" vertex="1">
          <mxGeometry x="660" y="170" width="80" height="80" as="geometry" />
        </mxCell>
        <mxCell id="fN2IPZuYBG6KQM6beQOC-26" value="" style="edgeStyle=elbowEdgeStyle;elbow=vertical;endArrow=classic;html=1;rounded=0;fontColor=#2B32FF;exitX=1;exitY=0;exitDx=0;exitDy=0;dashed=1;dashPattern=1 2;strokeColor=#FF00FF;entryX=0.5;entryY=1;entryDx=0;entryDy=0;" parent="1" source="fN2IPZuYBG6KQM6beQOC-10" target="fN2IPZuYBG6KQM6beQOC-25" edge="1">
          <mxGeometry width="50" height="50" relative="1" as="geometry">
            <mxPoint x="750" y="130" as="sourcePoint" />
            <mxPoint x="830" y="90" as="targetPoint" />
            <Array as="points">
              <mxPoint x="610" y="262" />
            </Array>
          </mxGeometry>
        </mxCell>
        <mxCell id="fN2IPZuYBG6KQM6beQOC-27" value="&lt;font color=&quot;#ff00ff&quot;&gt;多标签&lt;/font&gt;" style="edgeLabel;html=1;align=center;verticalAlign=middle;resizable=0;points=[];fontColor=#2B32FF;" parent="fN2IPZuYBG6KQM6beQOC-26" vertex="1" connectable="0">
          <mxGeometry x="0.1333" y="-1" relative="1" as="geometry">
            <mxPoint x="-24" y="-3" as="offset" />
          </mxGeometry>
        </mxCell>
        <mxCell id="fN2IPZuYBG6KQM6beQOC-28" value="" style="edgeStyle=elbowEdgeStyle;elbow=vertical;endArrow=classic;html=1;rounded=0;fontColor=#2B32FF;dashed=1;dashPattern=1 2;strokeColor=#FF00FF;entryX=0;entryY=0.5;entryDx=0;entryDy=0;exitX=0.5;exitY=0;exitDx=0;exitDy=0;" parent="1" source="fN2IPZuYBG6KQM6beQOC-10" target="fN2IPZuYBG6KQM6beQOC-24" edge="1">
          <mxGeometry width="50" height="50" relative="1" as="geometry">
            <mxPoint x="480" y="240" as="sourcePoint" />
            <mxPoint x="590" y="180" as="targetPoint" />
            <Array as="points">
              <mxPoint x="500" y="210" />
            </Array>
          </mxGeometry>
        </mxCell>
        <mxCell id="fN2IPZuYBG6KQM6beQOC-29" value="&lt;font color=&quot;#ff00ff&quot;&gt;多标签&lt;/font&gt;" style="edgeLabel;html=1;align=center;verticalAlign=middle;resizable=0;points=[];fontColor=#2B32FF;" parent="1" vertex="1" connectable="0">
          <mxGeometry x="610" y="270" as="geometry">
            <mxPoint x="-131" y="-50" as="offset" />
          </mxGeometry>
        </mxCell>
        <mxCell id="CjTlHAJ8Wki57LJ-zghi-1" value="Concept Deduplication" style="shape=hexagon;perimeter=hexagonPerimeter2;whiteSpace=wrap;html=1;fixedSize=1;fontSize=14;fontColor=#2B32FF;strokeColor=#2B32FF;" vertex="1" parent="1">
          <mxGeometry x="1310" y="600" width="120" height="80" as="geometry" />
        </mxCell>
        <mxCell id="CjTlHAJ8Wki57LJ-zghi-2" value="Innert Collection Management" style="shape=hexagon;perimeter=hexagonPerimeter2;whiteSpace=wrap;html=1;fixedSize=1;fontSize=14;fontColor=#2B32FF;strokeColor=#2B32FF;" vertex="1" parent="1">
          <mxGeometry x="1310" y="720" width="120" height="80" as="geometry" />
        </mxCell>
      </root>
    </mxGraphModel>
  </diagram>
  <diagram id="71tMseMKRE4gEu8A9oel" name="第 3 页">
    <mxGraphModel dx="1510" dy="1161" grid="1" gridSize="10" guides="1" tooltips="1" connect="1" arrows="1" fold="1" page="1" pageScale="1" pageWidth="850" pageHeight="1100" math="0" shadow="0">
      <root>
        <mxCell id="0" />
        <mxCell id="1" parent="0" />
        <mxCell id="ct9_3JWx2kEZ56Lv8w3a-1" value="DataSource" style="ellipse;whiteSpace=wrap;html=1;aspect=fixed;" vertex="1" parent="1">
          <mxGeometry x="544" y="520" width="80" height="80" as="geometry" />
        </mxCell>
        <mxCell id="ct9_3JWx2kEZ56Lv8w3a-4" value="Detail&lt;br&gt;三目录" style="ellipse;whiteSpace=wrap;html=1;aspect=fixed;" vertex="1" parent="1">
          <mxGeometry x="544" y="250" width="80" height="80" as="geometry" />
        </mxCell>
        <mxCell id="ct9_3JWx2kEZ56Lv8w3a-5" value="HAS_DETAIL" style="endArrow=classic;html=1;rounded=0;entryX=0.5;entryY=1;entryDx=0;entryDy=0;exitX=0.5;exitY=0;exitDx=0;exitDy=0;" edge="1" parent="1" source="ct9_3JWx2kEZ56Lv8w3a-1" target="ct9_3JWx2kEZ56Lv8w3a-4">
          <mxGeometry width="50" height="50" relative="1" as="geometry">
            <mxPoint x="114" y="480" as="sourcePoint" />
            <mxPoint x="164" y="430" as="targetPoint" />
          </mxGeometry>
        </mxCell>
        <mxCell id="ct9_3JWx2kEZ56Lv8w3a-6" value="" style="group;strokeColor=default;rounded=1;shadow=0;glass=0;sketch=0;" vertex="1" connectable="0" parent="1">
          <mxGeometry x="140" y="520" width="80" height="260" as="geometry" />
        </mxCell>
        <mxCell id="ct9_3JWx2kEZ56Lv8w3a-7" value="IndexedName" style="ellipse;whiteSpace=wrap;html=1;aspect=fixed;strokeColor=#6c8ebf;fillColor=#dae8fc;" vertex="1" parent="ct9_3JWx2kEZ56Lv8w3a-6">
          <mxGeometry width="80" height="80" as="geometry" />
        </mxCell>
        <mxCell id="ct9_3JWx2kEZ56Lv8w3a-8" value="Synonyms&lt;br&gt;同义词集合" style="ellipse;whiteSpace=wrap;html=1;aspect=fixed;strokeColor=default;" vertex="1" parent="ct9_3JWx2kEZ56Lv8w3a-6">
          <mxGeometry y="180" width="80" height="80" as="geometry" />
        </mxCell>
        <mxCell id="ct9_3JWx2kEZ56Lv8w3a-9" value="" style="endArrow=none;html=1;rounded=0;entryX=0.5;entryY=0;entryDx=0;entryDy=0;exitX=0.5;exitY=1;exitDx=0;exitDy=0;strokeColor=default;endFill=0;startArrow=classic;startFill=1;" edge="1" parent="ct9_3JWx2kEZ56Lv8w3a-6" source="ct9_3JWx2kEZ56Lv8w3a-7" target="ct9_3JWx2kEZ56Lv8w3a-8">
          <mxGeometry width="50" height="50" relative="1" as="geometry">
            <mxPoint x="-140" y="40" as="sourcePoint" />
            <mxPoint x="-90" y="-10" as="targetPoint" />
          </mxGeometry>
        </mxCell>
        <mxCell id="ct9_3JWx2kEZ56Lv8w3a-10" value="CONTAINS" style="edgeLabel;html=1;align=center;verticalAlign=middle;resizable=0;points=[];fontSize=10;fontFamily=Georgia;fontColor=#2B32FF;" vertex="1" connectable="0" parent="ct9_3JWx2kEZ56Lv8w3a-9">
          <mxGeometry x="-0.02" y="1" relative="1" as="geometry">
            <mxPoint as="offset" />
          </mxGeometry>
        </mxCell>
        <mxCell id="ct9_3JWx2kEZ56Lv8w3a-11" value="" style="edgeStyle=segmentEdgeStyle;endArrow=none;html=1;rounded=0;exitX=0.5;exitY=0;exitDx=0;exitDy=0;entryX=0;entryY=0.5;entryDx=0;entryDy=0;endFill=0;startArrow=classic;startFill=1;" edge="1" parent="1" source="ct9_3JWx2kEZ56Lv8w3a-7" target="ct9_3JWx2kEZ56Lv8w3a-4">
          <mxGeometry width="50" height="50" relative="1" as="geometry">
            <mxPoint x="400" y="620" as="sourcePoint" />
            <mxPoint x="450" y="570" as="targetPoint" />
            <Array as="points">
              <mxPoint x="180" y="290" />
            </Array>
          </mxGeometry>
        </mxCell>
        <mxCell id="ct9_3JWx2kEZ56Lv8w3a-13" value="INDXED_BY" style="edgeLabel;html=1;align=center;verticalAlign=middle;resizable=0;points=[];" vertex="1" connectable="0" parent="ct9_3JWx2kEZ56Lv8w3a-11">
          <mxGeometry x="0.0774" relative="1" as="geometry">
            <mxPoint x="120" as="offset" />
          </mxGeometry>
        </mxCell>
        <mxCell id="ct9_3JWx2kEZ56Lv8w3a-14" value="INCLUDE" style="endArrow=classic;html=1;rounded=0;entryX=1;entryY=0.5;entryDx=0;entryDy=0;exitX=0;exitY=0.5;exitDx=0;exitDy=0;" edge="1" parent="1" source="ct9_3JWx2kEZ56Lv8w3a-1" target="ct9_3JWx2kEZ56Lv8w3a-7">
          <mxGeometry width="50" height="50" relative="1" as="geometry">
            <mxPoint x="400" y="620" as="sourcePoint" />
            <mxPoint x="450" y="570" as="targetPoint" />
          </mxGeometry>
        </mxCell>
        <mxCell id="ct9_3JWx2kEZ56Lv8w3a-15" value="Universal Detail" style="ellipse;whiteSpace=wrap;html=1;aspect=fixed;" vertex="1" parent="1">
          <mxGeometry x="544" y="700" width="80" height="80" as="geometry" />
        </mxCell>
        <mxCell id="kE8-YvENT2vYjs3jbNy8-1" value="Concept Deduplication" style="shape=hexagon;perimeter=hexagonPerimeter2;whiteSpace=wrap;html=1;fixedSize=1;fontSize=14;fontColor=#2B32FF;strokeColor=#2B32FF;" vertex="1" parent="1">
          <mxGeometry x="471" y="840" width="226" height="80" as="geometry" />
        </mxCell>
        <mxCell id="kE8-YvENT2vYjs3jbNy8-2" value="Innert Collection Management" style="shape=hexagon;perimeter=hexagonPerimeter2;whiteSpace=wrap;html=1;fixedSize=1;fontSize=14;fontColor=#2B32FF;strokeColor=#2B32FF;" vertex="1" parent="1">
          <mxGeometry x="710" y="700" width="120" height="80" as="geometry" />
        </mxCell>
        <mxCell id="kE8-YvENT2vYjs3jbNy8-3" value="" style="edgeStyle=segmentEdgeStyle;endArrow=classic;html=1;rounded=0;exitX=1;exitY=0.5;exitDx=0;exitDy=0;entryX=0.5;entryY=0;entryDx=0;entryDy=0;" edge="1" parent="1" source="ct9_3JWx2kEZ56Lv8w3a-4" target="kE8-YvENT2vYjs3jbNy8-2">
          <mxGeometry width="50" height="50" relative="1" as="geometry">
            <mxPoint x="640" y="620" as="sourcePoint" />
            <mxPoint x="690" y="570" as="targetPoint" />
          </mxGeometry>
        </mxCell>
        <mxCell id="kE8-YvENT2vYjs3jbNy8-4" value="" style="endArrow=classic;html=1;rounded=0;entryX=1;entryY=0.5;entryDx=0;entryDy=0;exitX=0;exitY=0.5;exitDx=0;exitDy=0;" edge="1" parent="1" source="kE8-YvENT2vYjs3jbNy8-2" target="ct9_3JWx2kEZ56Lv8w3a-15">
          <mxGeometry width="50" height="50" relative="1" as="geometry">
            <mxPoint x="640" y="620" as="sourcePoint" />
            <mxPoint x="690" y="570" as="targetPoint" />
          </mxGeometry>
        </mxCell>
        <mxCell id="kE8-YvENT2vYjs3jbNy8-5" value="" style="endArrow=classic;html=1;rounded=0;exitX=1;exitY=1;exitDx=0;exitDy=0;entryX=0.625;entryY=0;entryDx=0;entryDy=0;" edge="1" parent="1" source="ct9_3JWx2kEZ56Lv8w3a-15" target="kE8-YvENT2vYjs3jbNy8-1">
          <mxGeometry width="50" height="50" relative="1" as="geometry">
            <mxPoint x="640" y="620" as="sourcePoint" />
            <mxPoint x="690" y="570" as="targetPoint" />
          </mxGeometry>
        </mxCell>
        <mxCell id="kE8-YvENT2vYjs3jbNy8-6" value="" style="endArrow=classic;html=1;rounded=0;exitX=0.375;exitY=0;exitDx=0;exitDy=0;entryX=0;entryY=1;entryDx=0;entryDy=0;" edge="1" parent="1" source="kE8-YvENT2vYjs3jbNy8-1" target="ct9_3JWx2kEZ56Lv8w3a-15">
          <mxGeometry width="50" height="50" relative="1" as="geometry">
            <mxPoint x="622.2842712474621" y="778.2842712474621" as="sourcePoint" />
            <mxPoint x="609" y="890" as="targetPoint" />
          </mxGeometry>
        </mxCell>
      </root>
    </mxGraphModel>
  </diagram>
</mxfile>
